<mxfile host="app.diagrams.net" modified="2024-06-12T12:02:23.664Z" agent="Mozilla/5.0 (Macintosh; Intel Mac OS X 10_15_7) AppleWebKit/605.1.15 (KHTML, like Gecko) Version/17.4.1 Safari/605.1.15" etag="dr7gR64ZMFJ2Zj0Yw2T0" version="24.4.14" type="device">
  <diagram name="Seite-1" id="8Ey9ggm2cK-5IuhsqDdw">
    <mxGraphModel dx="954" dy="624" grid="1" gridSize="10" guides="1" tooltips="1" connect="1" arrows="1" fold="1" page="1" pageScale="1" pageWidth="827" pageHeight="1169" math="0" shadow="0">
      <root>
        <mxCell id="0" />
        <mxCell id="1" parent="0" />
        <mxCell id="EP_AK833o97HDLuOh4MV-1" style="rounded=0;orthogonalLoop=1;jettySize=auto;html=1;endArrow=none;endFill=0;fontSize=18;fontStyle=1" edge="1" parent="1" source="FYB1tNpZg5OryoRXFsR8-1" target="FYB1tNpZg5OryoRXFsR8-6">
          <mxGeometry relative="1" as="geometry" />
        </mxCell>
        <mxCell id="FYB1tNpZg5OryoRXFsR8-1" value="1" style="ellipse;whiteSpace=wrap;html=1;fontSize=18;fontStyle=1" parent="1" vertex="1">
          <mxGeometry x="300" y="360" width="40" height="40" as="geometry" />
        </mxCell>
        <mxCell id="FYB1tNpZg5OryoRXFsR8-6" value="2" style="ellipse;whiteSpace=wrap;html=1;fontSize=18;fontStyle=1" parent="1" vertex="1">
          <mxGeometry x="360" y="270" width="40" height="40" as="geometry" />
        </mxCell>
        <mxCell id="FYB1tNpZg5OryoRXFsR8-8" value="3" style="ellipse;whiteSpace=wrap;html=1;fontSize=18;fontStyle=1" parent="1" vertex="1">
          <mxGeometry x="420" y="360" width="40" height="40" as="geometry" />
        </mxCell>
        <mxCell id="FYB1tNpZg5OryoRXFsR8-11" value="4" style="ellipse;whiteSpace=wrap;html=1;fontSize=18;fontStyle=1" parent="1" vertex="1">
          <mxGeometry x="360" y="330" width="40" height="40" as="geometry" />
        </mxCell>
        <mxCell id="EP_AK833o97HDLuOh4MV-3" style="rounded=0;orthogonalLoop=1;jettySize=auto;html=1;endArrow=none;endFill=0;fontSize=18;fontStyle=1" edge="1" parent="1" source="FYB1tNpZg5OryoRXFsR8-1" target="FYB1tNpZg5OryoRXFsR8-11">
          <mxGeometry relative="1" as="geometry">
            <mxPoint x="310" y="370" as="sourcePoint" />
            <mxPoint x="376" y="264" as="targetPoint" />
          </mxGeometry>
        </mxCell>
        <mxCell id="EP_AK833o97HDLuOh4MV-4" style="rounded=0;orthogonalLoop=1;jettySize=auto;html=1;endArrow=none;endFill=0;fontSize=18;fontStyle=1" edge="1" parent="1" source="FYB1tNpZg5OryoRXFsR8-1" target="FYB1tNpZg5OryoRXFsR8-8">
          <mxGeometry relative="1" as="geometry">
            <mxPoint x="340" y="380" as="sourcePoint" />
            <mxPoint x="386" y="274" as="targetPoint" />
          </mxGeometry>
        </mxCell>
        <mxCell id="EP_AK833o97HDLuOh4MV-5" style="rounded=0;orthogonalLoop=1;jettySize=auto;html=1;endArrow=none;endFill=0;fontSize=18;fontStyle=1" edge="1" parent="1" source="FYB1tNpZg5OryoRXFsR8-11" target="FYB1tNpZg5OryoRXFsR8-8">
          <mxGeometry relative="1" as="geometry">
            <mxPoint x="330" y="390" as="sourcePoint" />
            <mxPoint x="396" y="284" as="targetPoint" />
          </mxGeometry>
        </mxCell>
        <mxCell id="EP_AK833o97HDLuOh4MV-6" style="rounded=0;orthogonalLoop=1;jettySize=auto;html=1;endArrow=none;endFill=0;fontSize=18;fontStyle=1" edge="1" parent="1" source="FYB1tNpZg5OryoRXFsR8-6" target="FYB1tNpZg5OryoRXFsR8-8">
          <mxGeometry relative="1" as="geometry">
            <mxPoint x="340" y="400" as="sourcePoint" />
            <mxPoint x="406" y="294" as="targetPoint" />
          </mxGeometry>
        </mxCell>
        <mxCell id="EP_AK833o97HDLuOh4MV-7" style="rounded=0;orthogonalLoop=1;jettySize=auto;html=1;endArrow=none;endFill=0;fontSize=18;fontStyle=1" edge="1" parent="1" source="FYB1tNpZg5OryoRXFsR8-11" target="FYB1tNpZg5OryoRXFsR8-6">
          <mxGeometry relative="1" as="geometry">
            <mxPoint x="350" y="410" as="sourcePoint" />
            <mxPoint x="416" y="304" as="targetPoint" />
          </mxGeometry>
        </mxCell>
      </root>
    </mxGraphModel>
  </diagram>
</mxfile>
